<?xml version="1.0" encoding="UTF-8"?>
<mxfile host="app.diagrams.net" modified="2025-08-12 16:17:47 +0900" agent="VSCode Draw.io Integration" version="23.0.0" type="device">
  <diagram id="usecase-template" name="UseCase Template">
    <mxGraphModel dx="1280" dy="720" grid="1" gridSize="10" guides="1" tooltips="1" connect="1" arrows="1" fold="1" page="1" pageScale="1" pageWidth="1600" pageHeight="900" math="0" shadow="0">
      <root>
        <mxCell id="0"/>
        <mxCell id="1" parent="0"/>
        <mxCell id="title" value="&lt;b&gt;Use Case Diagram Template&lt;/b&gt;" style="text;html=1;strokeColor=none;fillColor=none;fontSize=20;fontStyle=1;align=center;" vertex="1" parent="1">
          <mxGeometry x="600" y="20" width="400" height="30" as="geometry"/>
        </mxCell>
        <mxCell id="systemBoundary" value="System Boundary" style="rounded=1;whiteSpace=wrap;html=1;dashed=0;strokeWidth=2;fillColor=#FFFFFF;" vertex="1" parent="1">
          <mxGeometry x="400" y="80" width="800" height="520" as="geometry"/>
        </mxCell>
        <mxCell id="uc1" value="Use Case 1" style="ellipse;whiteSpace=wrap;html=1;strokeWidth=1;fillColor=#E6F0FA;" vertex="1" parent="systemBoundary">
          <mxGeometry x="80" y="60" width="180" height="80" as="geometry"/>
        </mxCell>
        <mxCell id="uc2" value="Use Case 2" style="ellipse;whiteSpace=wrap;html=1;strokeWidth=1;fillColor=#E6F0FA;" vertex="1" parent="systemBoundary">
          <mxGeometry x="340" y="80" width="180" height="80" as="geometry"/>
        </mxCell>
        <mxCell id="uc3" value="Use Case 3" style="ellipse;whiteSpace=wrap;html=1;strokeWidth=1;fillColor=#E6F0FA;" vertex="1" parent="systemBoundary">
          <mxGeometry x="220" y="220" width="180" height="80" as="geometry"/>
        </mxCell>
        <mxCell id="actor1" value="Actor A" style="shape=umlActor;verticalLabelPosition=bottom;verticalAlign=top;html=1;strokeColor=#666666;fontColor=#333333;" vertex="1" parent="1">
          <mxGeometry x="220" y="160" width="40" height="80" as="geometry"/>
        </mxCell>
        <mxCell id="actor2" value="Actor B" style="shape=umlActor;verticalLabelPosition=bottom;verticalAlign=top;html=1;strokeColor=#666666;fontColor=#333333;" vertex="1" parent="1">
          <mxGeometry x="1240" y="300" width="40" height="80" as="geometry"/>
        </mxCell>
        <mxCell id="edge1" edge="1" source="actor1" target="uc1" style="endArrow=none;strokeWidth=1;">
          <mxGeometry relative="1" as="geometry"/>
        </mxCell>
        <mxCell id="edge2" edge="1" source="actor1" target="uc3" style="endArrow=none;strokeWidth=1;">
          <mxGeometry relative="1" as="geometry"/>
        </mxCell>
        <mxCell id="edge3" edge="1" source="actor2" target="uc2" style="endArrow=none;strokeWidth=1;">
          <mxGeometry relative="1" as="geometry"/>
        </mxCell>
        <mxCell id="legend" value="Legend:
• Ellipse: Use Case
• Stickman: Actor
• Line: Association" style="rounded=1;whiteSpace=wrap;html=1;fillColor=#F7F7F7;strokeColor=#CCCCCC;fontSize=12;" vertex="1" parent="1">
          <mxGeometry x="1170" y="600" width="260" height="120" as="geometry"/>
        </mxCell>
        <mxCell id="footer" value="Version: v1.0   Date: 2025-08-12 16:17:47 +0900   Author: &lt;your name&gt;" style="text;html=1;strokeColor=none;fillColor=none;fontSize=12;align=right;" vertex="1" parent="1">
          <mxGeometry x="900" y="750" width="600" height="30" as="geometry"/>
        </mxCell>
      </root>
    </mxGraphModel>
  </diagram>
</mxfile>
